<svg width="24" height="24" viewBox="0 0 24 24" fill="none" xmlns="http://www.w3.org/2000/svg">
<g clip-path="url(#clip0_287_439)">
<path d="M9.34107 13.5469C9.25754 13.5469 7.41995 13.5469 6.58469 13.5469C6.13921 13.5469 6 13.3667 6 12.9161C6 11.7146 6 10.4831 6 9.2816C6 8.801 6.16705 8.65081 6.58469 8.65081H9.34107C9.34107 8.5607 9.34107 6.81852 9.34107 6.00751C9.34107 4.80601 9.53596 3.66458 10.0928 2.61327C10.6775 1.53191 11.5128 0.811014 12.5708 0.390488C13.2668 0.12015 13.9629 0 14.7146 0H17.4432C17.8329 0 18 0.180225 18 0.600751V4.02503C18 4.44556 17.8329 4.62578 17.4432 4.62578C16.6914 4.62578 15.9397 4.62578 15.1879 4.65582C14.4362 4.65582 14.0464 5.04631 14.0464 5.88736C14.0186 6.78849 14.0464 7.65957 14.0464 8.59074H17.2761C17.7216 8.59074 17.8886 8.77096 17.8886 9.25156V12.8861C17.8886 13.3667 17.7494 13.5169 17.2761 13.5169C16.2738 13.5169 14.1299 13.5169 14.0464 13.5169V23.3091C14.0464 23.8198 13.9072 24 13.406 24C12.2367 24 11.0951 24 9.92575 24C9.50812 24 9.34107 23.8198 9.34107 23.3692C9.34107 20.2153 9.34107 13.637 9.34107 13.5469Z" fill="#1D2025"/>
</g>
<defs>
<clipPath id="clip0_287_439">
<rect width="24" height="24" fill="white"/>
</clipPath>
</defs>
</svg>
