<svg width="180" height="46" viewBox="0 0 180 46" fill="none" xmlns="http://www.w3.org/2000/svg">
<g clip-path="url(#clip0_214_117)">
<path d="M4.04369 44.7631L5.53702 40.4398H15.1634L16.1513 37.6412H6.52494L6.96144 36.3898H16.6108L17.6676 33.3181H6.54792C6.33348 33.3181 6.09608 33.3711 5.83571 33.4774C5.57532 33.5835 5.32261 33.7276 5.07753 33.9097C4.8478 34.0765 4.64103 34.2738 4.45724 34.5012C4.27343 34.7137 4.14323 34.9335 4.06666 35.1611L0.735352 44.7631H4.04369ZM31.6116 33.3181H20.9743C20.7599 33.3181 20.5225 33.3711 20.2621 33.4774C20.0017 33.5835 19.749 33.7276 19.5039 33.9097C19.2742 34.0765 19.0674 34.2738 18.8836 34.5012C18.6998 34.7137 18.5696 34.9335 18.4931 35.1611L15.805 42.9199C15.7284 43.1476 15.7055 43.3752 15.7361 43.6026C15.7668 43.8151 15.8357 44.0123 15.9429 44.1941C16.0654 44.361 16.2186 44.4975 16.4024 44.6038C16.5862 44.71 16.7853 44.7631 16.9997 44.7631H27.637C27.8513 44.7631 28.0888 44.71 28.3491 44.6038C28.6096 44.4975 28.8546 44.361 29.0844 44.1941C29.3294 44.0123 29.5439 43.8151 29.7277 43.6026C29.9113 43.3752 30.0417 43.1476 30.1182 42.9199L32.8062 35.1611C32.8829 34.9335 32.9057 34.7137 32.8752 34.5012C32.8445 34.2738 32.7678 34.0765 32.6454 33.9097C32.5382 33.7276 32.3927 33.5835 32.2089 33.4774C32.0251 33.3711 31.8259 33.3181 31.6116 33.3181ZM29.0844 36.3898L27.2233 41.6913H19.5269L21.3879 36.3898H29.0844ZM33.4155 37.6412L30.9343 44.7631H34.2426L35.736 40.4398H39.412L41.2959 44.7631H44.742L43.065 40.4398H44.0069C44.2212 40.4398 44.4587 40.3869 44.719 40.2806C44.9793 40.1744 45.2245 40.038 45.4541 39.8711C45.6993 39.689 45.9138 39.4918 46.0974 39.2796C46.2813 39.0519 46.4114 38.8245 46.4881 38.5969L47.6827 35.1611C47.7594 34.9335 47.7824 34.7137 47.7517 34.5012C47.721 34.2738 47.6446 34.0765 47.5218 33.9097C47.4147 33.7276 47.2692 33.5835 47.0854 33.4774C46.9015 33.3711 46.7026 33.3181 46.4881 33.3181H34.9089L33.8522 36.3898H43.9609L43.5245 37.6412H33.4155ZM58.0318 40.4398L57.5954 41.6913H46.8663L45.8093 44.7631H58.0088C58.2233 44.7631 58.4609 44.71 58.7211 44.6038C58.9814 44.4975 59.2266 44.361 59.4562 44.1941C59.7014 44.0123 59.9157 43.8151 60.0996 43.6026C60.2834 43.3752 60.4135 43.1476 60.4902 42.9199L61.6848 39.4842C61.7615 39.2568 61.7845 39.0367 61.7538 38.8245C61.7231 38.5969 61.6465 38.3996 61.524 38.2327C61.4168 38.0509 61.2714 37.9066 61.0875 37.8005C60.9037 37.6944 60.7045 37.6412 60.4902 37.6412H51.599L52.0355 36.3898H62.7646L63.8216 33.3181H51.6221C51.4075 33.3181 51.1703 33.3711 50.9097 33.4774C50.6494 33.5835 50.3968 33.7276 50.1516 33.9097C49.922 34.0765 49.7152 34.2738 49.5313 34.5012C49.3475 34.7137 49.2173 34.9335 49.1406 35.1611L47.9461 38.5969C47.8694 38.8245 47.8466 39.0519 47.877 39.2796C47.9077 39.4918 47.9768 39.689 48.0839 39.8711C48.2064 40.038 48.3595 40.1744 48.5434 40.2806C48.7272 40.3869 48.9264 40.4398 49.1406 40.4398H58.0318ZM66.1889 42.8518H72.369L72.6677 44.7631H76.0908L74.7582 34.9563C74.6817 34.4103 74.5286 34.0006 74.2987 33.7276C74.0844 33.4546 73.7168 33.3181 73.1959 33.3181H71.7485C70.7071 33.3181 69.7268 33.8641 68.8079 34.9563L60.6748 44.7631H64.5806L66.1889 42.8518ZM72.0244 40.1213H68.4862L71.5189 36.6855L72.0244 40.1213ZM89.3806 40.4398L88.9439 41.6913H81.2935L83.1544 36.3898H94.1133L95.1701 33.3181H82.741C82.5265 33.3181 82.2889 33.3711 82.0286 33.4774C81.7683 33.5835 81.5155 33.7276 81.2705 33.9097C81.0407 34.0765 80.8341 34.2738 80.6502 34.5012C80.4664 34.7137 80.3363 34.9335 80.2596 35.1611L77.5715 42.9199C77.4951 43.1476 77.4721 43.3752 77.5027 43.6026C77.5332 43.8151 77.6022 44.0123 77.7094 44.1941C77.8321 44.361 77.9852 44.4975 78.1688 44.6038C78.3527 44.71 78.5518 44.7631 78.7663 44.7631H89.3576C89.5719 44.7631 89.8094 44.71 90.0697 44.6038C90.3302 44.4975 90.5752 44.361 90.805 44.1941C91.05 44.0123 91.2645 43.8151 91.4483 43.6026C91.6319 43.3752 91.7623 43.1476 91.8388 42.9199L93.0336 39.4842C93.11 39.2568 93.133 39.0367 93.1023 38.8245C93.0717 38.5969 92.9952 38.3996 92.8727 38.2327C92.7654 38.0509 92.6199 37.9066 92.436 37.8005C92.2522 37.6944 92.0533 37.6412 91.8388 37.6412H84.8545L83.8665 40.4398H89.3806ZM94.4939 44.7631H105.614L106.67 41.6913H97.0211L97.4576 40.4398H107.084L108.072 37.6412H98.4455L98.882 36.3898H108.531L109.588 33.3181H98.4686C98.254 33.3181 98.0168 33.3711 97.7562 33.4774C97.4959 33.5835 97.2433 33.7276 96.9981 33.9097C96.7685 34.0765 96.5617 34.2738 96.3778 34.5012C96.194 34.7137 96.0638 34.9335 95.9874 35.1611L93.2994 42.9199C93.2227 43.1476 93.1997 43.3752 93.2303 43.6026C93.261 43.8151 93.3298 44.0123 93.4372 44.1941C93.5597 44.361 93.7128 44.4975 93.8967 44.6038C94.0805 44.71 94.2794 44.7631 94.4939 44.7631ZM120.484 42.8518H126.664L126.963 44.7631H130.386L129.054 34.9563C128.977 34.4103 128.824 34.0006 128.594 33.7276C128.38 33.4546 128.012 33.3181 127.491 33.3181H126.044C125.002 33.3181 124.022 33.8641 123.103 34.9563L114.97 44.7631H118.876L120.484 42.8518ZM126.32 40.1213H122.781L125.814 36.6855L126.32 40.1213ZM135.589 41.6913L138.506 33.3181H135.198L131.867 42.9199C131.79 43.1476 131.767 43.3752 131.798 43.6026C131.829 43.8151 131.898 44.0123 132.005 44.1941C132.127 44.361 132.281 44.4975 132.464 44.6038C132.648 44.71 132.847 44.7631 133.062 44.7631H143.653C143.867 44.7631 144.105 44.71 144.365 44.6038C144.625 44.4975 144.87 44.361 145.1 44.1941C145.345 44.0123 145.56 43.8151 145.744 43.6026C145.927 43.3752 146.058 43.1476 146.134 42.9199L149.465 33.3181H146.157L143.239 41.6913H135.589ZM149.869 36.3898H155.084L152.167 44.7631H155.475L158.393 36.3898H163.608L164.665 33.3181H150.926L149.869 36.3898ZM178.613 33.3181H167.975C167.761 33.3181 167.524 33.3711 167.263 33.4774C167.003 33.5835 166.75 33.7276 166.505 33.9097C166.275 34.0765 166.069 34.2738 165.885 34.5012C165.701 34.7137 165.571 34.9335 165.494 35.1611L162.806 42.9199C162.73 43.1476 162.707 43.3752 162.737 43.6026C162.768 43.8151 162.837 44.0123 162.944 44.1941C163.066 44.361 163.22 44.4975 163.403 44.6038C163.587 44.71 163.786 44.7631 164.001 44.7631H174.638C174.853 44.7631 175.09 44.71 175.35 44.6038C175.611 44.4975 175.856 44.361 176.085 44.1941C176.331 44.0123 176.545 43.8151 176.729 43.6026C176.913 43.3752 177.043 43.1476 177.119 42.9199L179.807 35.1611C179.884 34.9335 179.907 34.7137 179.876 34.5012C179.846 34.2738 179.769 34.0765 179.647 33.9097C179.539 33.7276 179.394 33.5835 179.21 33.4774C179.026 33.3711 178.827 33.3181 178.613 33.3181ZM176.085 36.3898L174.225 41.6913H166.528L168.389 36.3898H176.085Z" fill="white"/>
<mask id="path-2-outside-1_214_117" maskUnits="userSpaceOnUse" x="-1" y="0.0167313" width="179" height="27" fill="black">
<rect fill="white" x="-1" y="0.0167313" width="179" height="27"/>
<path d="M82.5972 23.0749C77.6641 23.0352 72.731 23.0372 67.7977 23.0176C62.8648 23.0382 57.9317 23.0347 52.9986 23.0754L45.5987 23.1448C43.1322 23.186 40.6661 23.2106 38.1993 23.2664C40.6661 23.3227 43.1322 23.3469 45.5987 23.3881L52.9986 23.4574C57.9317 23.4986 62.8648 23.4946 67.7977 23.5157C72.731 23.4961 77.6641 23.4981 82.5972 23.4584L89.9969 23.3891C92.4634 23.3473 94.93 23.3232 97.3965 23.2664C94.93 23.2101 92.4634 23.1855 89.9969 23.1443L82.5972 23.0749ZM73.836 13.3119C72.5213 13.61 71.1762 13.8081 69.8216 13.9242C70.502 13.9403 71.1829 13.9091 71.8634 13.8588C72.5441 13.8101 73.2233 13.7297 73.8976 13.6095C74.5727 13.4919 75.2426 13.331 75.8979 13.1074C76.5513 12.8816 77.197 12.5886 77.7591 12.1352L78.005 11.9376L77.7308 11.7702C76.8871 11.2555 76.0027 10.8423 75.0703 10.5121C74.6015 10.3567 74.1207 10.2245 73.6236 10.1506C73.1275 10.0767 72.6078 10.0531 72.0949 10.1788C71.6033 10.2984 71.1465 10.4638 70.6923 10.6407C70.2388 10.8182 69.7911 11.0042 69.3501 11.2042C68.9069 11.3997 68.4693 11.6074 68.0364 11.8225C67.6024 12.0361 67.1695 12.2518 66.7453 12.485L68.105 11.9794L69.4649 11.4832C70.3695 11.164 71.2848 10.8232 72.1927 10.6186C72.6261 10.5271 73.0908 10.5583 73.5479 10.6287C74.0061 10.7011 74.4601 10.8303 74.9061 10.9835C75.692 11.248 76.4576 11.6033 77.1905 11.9949C76.7608 12.3006 76.2678 12.5378 75.7608 12.7384C75.1403 12.9782 74.4908 13.1561 73.836 13.3119ZM150.982 22.53C149.873 22.4194 148.757 22.3902 147.643 22.4229C145.415 22.5129 143.197 22.8939 141.085 23.5936C138.971 24.2848 136.967 25.2978 135.186 26.595C137.075 25.4585 139.104 24.5819 141.202 23.9636C143.303 23.3514 145.476 23 147.661 22.9211C149.846 22.8406 152.041 23.0251 154.182 23.48C156.322 23.939 158.413 24.6547 160.392 25.6294C158.508 24.4849 156.431 23.6309 154.271 23.1005C153.192 22.8291 152.091 22.6461 150.982 22.53ZM21.7133 23.0292C20.1705 23.093 18.6339 23.3604 17.1755 23.8566C15.716 24.3446 14.3378 25.064 13.127 25.9838C14.4459 25.2249 15.8485 24.6417 17.2932 24.2265C18.74 23.8179 20.232 23.5801 21.7315 23.5273C23.2316 23.471 24.7377 23.5942 26.2119 23.8943C27.6845 24.1999 29.1279 24.6718 30.507 25.3177C29.2233 24.502 27.7938 23.8917 26.3009 23.5152C24.8088 23.1292 23.256 22.9794 21.7133 23.0292ZM141.749 9.65497C140.342 9.25889 138.935 8.8668 137.521 8.49583C136.108 8.11981 134.689 7.76643 133.263 7.43619C134.649 7.90517 136.041 8.35155 137.44 8.77429C138.837 9.20256 140.241 9.61025 141.645 10.0134C143.052 10.41 144.46 10.8016 145.874 11.1731C147.286 11.5491 148.705 11.9019 150.131 12.2322C148.745 11.7627 147.353 11.3163 145.955 10.8931C144.557 10.4653 143.154 10.0576 141.749 9.65497ZM108.1 14.5043C107.732 14.5163 107.364 14.5279 106.996 14.543C105.503 14.5862 104.009 14.6264 102.515 14.6556L93.5502 14.83L58.7255 15.4041C61.3781 13.8392 64.0661 12.3262 66.7826 10.8715C68.2919 10.0612 69.8139 9.27344 71.3514 8.51793C72.8895 7.76341 74.4414 7.03655 76.0228 6.38308C77.6037 5.73664 79.2127 5.11937 80.8775 4.78508C82.5584 4.49102 84.2695 4.29395 85.9789 4.14317C89.401 3.84909 92.8405 3.737 96.2799 3.74654C92.8417 3.63897 89.3972 3.69477 85.9612 3.92298C84.2429 4.04514 82.5287 4.19796 80.8198 4.47894C79.1061 4.80267 77.4815 5.40688 75.8804 6.03927C74.2798 6.67866 72.7128 7.39095 71.1599 8.12987C69.608 8.87031 68.0714 9.64242 66.5485 10.4376C63.5038 12.0331 60.509 13.7126 57.548 15.4604L56.677 15.9746L57.693 15.9615C63.6721 15.8856 69.6502 15.8223 75.6281 15.7132L93.5617 15.3488C96.5502 15.2839 99.5391 15.199 102.527 15.098C104.021 15.0517 105.516 14.9939 107.01 14.9336C107.757 14.9065 108.505 14.8612 109.253 14.8255C109.625 14.8114 110.002 14.7767 110.378 14.7466L110.942 14.7003C111.13 14.6747 111.316 14.6465 111.502 14.6144C112.985 14.3509 114.437 13.9926 115.885 13.615C117.331 13.236 118.77 12.8339 120.205 12.4187C121.641 12.0035 123.072 11.5747 124.498 11.1313C125.212 10.9102 125.923 10.6815 126.632 10.4462L127.692 10.0853L128.219 9.89425C128.39 9.82339 128.575 9.77112 128.726 9.66352C128.573 9.76709 128.387 9.81432 128.214 9.88069L127.683 10.0581L126.614 10.3919L124.467 11.0273C123.033 11.4435 121.594 11.8441 120.153 12.2322C118.71 12.6193 117.265 12.9937 115.815 13.3451C114.364 13.6889 112.911 14.0413 111.447 14.2801C110.511 14.4058 109.559 14.452 108.604 14.4857L109.99 5.4883L108.1 14.5043ZM121.368 14.7385C125.365 13.4446 129.298 11.9924 133.208 10.4703L133.602 10.3175L133.3 10.032C132.402 9.185 131.468 8.3948 130.483 7.65334C129.989 7.28639 129.48 6.93552 128.95 6.61279C128.42 6.29207 127.865 5.995 127.256 5.79997L127.029 5.72506L126.802 5.66927L126.346 5.5597C126.041 5.50591 125.737 5.44106 125.432 5.39632C124.822 5.3013 124.212 5.22892 123.602 5.16106C122.38 5.03439 121.157 4.94794 119.934 4.87355C117.488 4.72927 115.042 4.63226 112.596 4.53925C110.15 4.44476 107.704 4.36937 105.257 4.29094L112.587 4.72023C115.03 4.86348 117.473 5.0108 119.91 5.2048C121.128 5.30635 122.345 5.41595 123.557 5.55367C124.161 5.62859 124.765 5.70749 125.363 5.80854C125.663 5.8568 125.956 5.92315 126.253 5.97943L126.688 6.09L126.905 6.1458L127.113 6.2177C127.667 6.40167 128.196 6.69072 128.704 7.0079C129.212 7.3266 129.704 7.67494 130.185 8.0404C131.026 8.69086 131.834 9.39462 132.607 10.1235C130.784 10.8071 128.95 11.4697 127.111 12.1131C125.134 12.7987 123.158 13.4874 121.164 14.1192C119.172 14.7516 117.17 15.3573 115.147 15.851C114.641 15.9671 114.136 16.1003 113.627 16.1862L112.866 16.331C112.612 16.3687 112.36 16.3928 112.106 16.425L111.727 16.4707L111.337 16.4868L110.558 16.5195C110.041 16.5457 109.513 16.5482 108.991 16.5632C104.803 16.6603 100.607 16.697 96.4129 16.7618L83.8302 16.9518L71.2467 17.1433L58.6639 17.4087C54.4698 17.5063 50.2749 17.6033 46.0819 17.7476C41.8894 17.9023 37.6948 18.0305 33.5083 18.3095C41.894 18.0351 50.2833 17.9984 58.6719 17.8908L71.2553 17.7782L83.8393 17.6395C92.2293 17.5465 100.616 17.4882 109.011 17.267C109.537 17.2494 110.058 17.2448 110.588 17.2162L111.38 17.1795L111.776 17.1614L112.178 17.1122C112.445 17.0775 112.715 17.0498 112.979 17.0091L113.761 16.8573C114.287 16.7658 114.796 16.6291 115.311 16.5089C117.359 15.9997 119.369 15.3825 121.368 14.7385ZM158.956 14.8949C156.469 14.6058 153.971 14.4138 151.468 14.2977C148.964 14.1956 146.456 14.1921 143.95 14.2716C141.444 14.357 138.943 14.5551 136.455 14.83C133.967 15.1125 131.486 15.4473 129.02 15.8716C124.088 16.6995 119.195 17.7496 114.374 19.0565C116.82 18.5503 119.268 18.0662 121.727 17.644C124.183 17.2057 126.646 16.8096 129.113 16.4486C131.58 16.0942 134.052 15.7741 136.531 15.5348C137.769 15.4026 139.01 15.3061 140.25 15.208L142.113 15.0959C142.734 15.0577 143.356 15.0462 143.977 15.019C148.95 14.831 153.934 15.0175 158.895 15.4735C163.858 15.9299 168.801 16.6392 173.739 17.3972C171.299 16.8654 168.844 16.4014 166.383 15.9626C163.919 15.5413 161.443 15.1749 158.956 14.8949ZM13.194 18.867C10.9515 19.3109 8.72087 19.816 6.51324 20.4102C5.41093 20.7113 4.31034 21.022 3.2231 21.3738C2.13564 21.7247 1.05234 22.0942 0 22.54C1.04345 22.0736 2.1202 21.6825 3.20148 21.31C4.2834 20.938 5.37723 20.5997 6.47772 20.2845C8.6796 19.6577 10.9067 19.1188 13.1468 18.6408C15.3891 18.1703 17.645 17.7692 19.9081 17.4087C22.1752 17.0709 24.4488 16.7749 26.7287 16.5477C31.2872 16.0726 35.8576 15.7368 40.4319 15.4775C44.9744 15.2246 49.5177 15.019 54.0693 14.9235C56.2585 13.4437 58.494 12.0572 60.7693 10.7232C63.0736 9.37701 65.4172 8.09469 67.8135 6.91036C70.2096 5.72658 72.6553 4.63024 75.177 3.71136C76.4353 3.24789 77.715 2.83268 79.0181 2.49036C80.3198 2.14704 81.645 1.86805 82.993 1.70971C88.3246 1.11856 93.6791 0.99993 99.0247 1.01853C104.371 1.0698 109.715 1.28395 115.043 1.75647C117.707 1.98217 120.365 2.28276 123.013 2.67485C124.338 2.86084 125.656 3.10212 126.973 3.34692L128.937 3.77016C129.589 3.91646 130.237 4.08333 130.887 4.23867C133.481 4.88713 136.056 5.59989 138.612 6.36649C141.171 7.12504 143.718 7.92127 146.257 8.73809C148.797 9.55146 151.33 10.3864 153.862 11.2173C155.129 11.6315 156.393 12.0553 157.662 12.4594C158.929 12.8641 160.202 13.2783 161.484 13.5874C162.121 13.7563 162.781 13.7608 163.444 13.7855L164.44 13.7764L165.438 13.7372C166.767 13.6689 168.097 13.5608 169.424 13.4311C172.077 13.1632 174.727 12.8495 177.369 12.4755C174.734 12.8972 172.093 13.2773 169.44 13.5779C168.113 13.7272 166.784 13.8554 165.45 13.9438L164.448 13.9976L163.443 14.0217C162.777 14.0077 162.088 14.0107 161.429 13.8473C160.113 13.5507 158.841 13.1561 157.564 12.769C156.286 12.381 155.015 11.9809 153.744 11.5782C151.202 10.7704 148.664 9.95808 146.118 9.1689C143.573 8.37567 141.023 7.60309 138.462 6.86915C135.904 6.12722 133.33 5.43957 130.744 4.81777C130.096 4.66896 129.45 4.50861 128.801 4.36937L126.849 3.96673C125.543 3.72746 124.235 3.4922 122.918 3.31122C120.286 2.9297 117.638 2.63815 114.984 2.421C109.678 1.96608 104.347 1.76903 99.0204 1.73334C93.6947 1.72429 88.3611 1.88363 83.0778 2.43909C81.7742 2.58788 80.4821 2.85531 79.2053 3.18858C77.928 3.51985 76.6671 3.9245 75.4236 4.37841C72.9328 5.2777 70.5046 6.35692 68.1227 7.52466C65.74 8.69387 63.4055 9.96211 61.1089 11.2942C58.8161 12.6293 56.5502 14.0257 54.3557 15.5031L54.2732 15.5584L54.1767 15.5604C49.6057 15.6454 45.0297 15.7886 40.4605 16.0093C35.89 16.2269 31.3234 16.5215 26.7704 16.9548C24.4929 17.1629 22.2239 17.4379 19.9578 17.7365C17.6953 18.0632 15.4383 18.4302 13.194 18.867Z"/>
</mask>
<path d="M82.5972 23.0749C77.6641 23.0352 72.731 23.0372 67.7977 23.0176C62.8648 23.0382 57.9317 23.0347 52.9986 23.0754L45.5987 23.1448C43.1322 23.186 40.6661 23.2106 38.1993 23.2664C40.6661 23.3227 43.1322 23.3469 45.5987 23.3881L52.9986 23.4574C57.9317 23.4986 62.8648 23.4946 67.7977 23.5157C72.731 23.4961 77.6641 23.4981 82.5972 23.4584L89.9969 23.3891C92.4634 23.3473 94.93 23.3232 97.3965 23.2664C94.93 23.2101 92.4634 23.1855 89.9969 23.1443L82.5972 23.0749ZM73.836 13.3119C72.5213 13.61 71.1762 13.8081 69.8216 13.9242C70.502 13.9403 71.1829 13.9091 71.8634 13.8588C72.5441 13.8101 73.2233 13.7297 73.8976 13.6095C74.5727 13.4919 75.2426 13.331 75.8979 13.1074C76.5513 12.8816 77.197 12.5886 77.7591 12.1352L78.005 11.9376L77.7308 11.7702C76.8871 11.2555 76.0027 10.8423 75.0703 10.5121C74.6015 10.3567 74.1207 10.2245 73.6236 10.1506C73.1275 10.0767 72.6078 10.0531 72.0949 10.1788C71.6033 10.2984 71.1465 10.4638 70.6923 10.6407C70.2388 10.8182 69.7911 11.0042 69.3501 11.2042C68.9069 11.3997 68.4693 11.6074 68.0364 11.8225C67.6024 12.0361 67.1695 12.2518 66.7453 12.485L68.105 11.9794L69.4649 11.4832C70.3695 11.164 71.2848 10.8232 72.1927 10.6186C72.6261 10.5271 73.0908 10.5583 73.5479 10.6287C74.0061 10.7011 74.4601 10.8303 74.9061 10.9835C75.692 11.248 76.4576 11.6033 77.1905 11.9949C76.7608 12.3006 76.2678 12.5378 75.7608 12.7384C75.1403 12.9782 74.4908 13.1561 73.836 13.3119ZM150.982 22.53C149.873 22.4194 148.757 22.3902 147.643 22.4229C145.415 22.5129 143.197 22.8939 141.085 23.5936C138.971 24.2848 136.967 25.2978 135.186 26.595C137.075 25.4585 139.104 24.5819 141.202 23.9636C143.303 23.3514 145.476 23 147.661 22.9211C149.846 22.8406 152.041 23.0251 154.182 23.48C156.322 23.939 158.413 24.6547 160.392 25.6294C158.508 24.4849 156.431 23.6309 154.271 23.1005C153.192 22.8291 152.091 22.6461 150.982 22.53ZM21.7133 23.0292C20.1705 23.093 18.6339 23.3604 17.1755 23.8566C15.716 24.3446 14.3378 25.064 13.127 25.9838C14.4459 25.2249 15.8485 24.6417 17.2932 24.2265C18.74 23.8179 20.232 23.5801 21.7315 23.5273C23.2316 23.471 24.7377 23.5942 26.2119 23.8943C27.6845 24.1999 29.1279 24.6718 30.507 25.3177C29.2233 24.502 27.7938 23.8917 26.3009 23.5152C24.8088 23.1292 23.256 22.9794 21.7133 23.0292ZM141.749 9.65497C140.342 9.25889 138.935 8.8668 137.521 8.49583C136.108 8.11981 134.689 7.76643 133.263 7.43619C134.649 7.90517 136.041 8.35155 137.44 8.77429C138.837 9.20256 140.241 9.61025 141.645 10.0134C143.052 10.41 144.46 10.8016 145.874 11.1731C147.286 11.5491 148.705 11.9019 150.131 12.2322C148.745 11.7627 147.353 11.3163 145.955 10.8931C144.557 10.4653 143.154 10.0576 141.749 9.65497ZM108.1 14.5043C107.732 14.5163 107.364 14.5279 106.996 14.543C105.503 14.5862 104.009 14.6264 102.515 14.6556L93.5502 14.83L58.7255 15.4041C61.3781 13.8392 64.0661 12.3262 66.7826 10.8715C68.2919 10.0612 69.8139 9.27344 71.3514 8.51793C72.8895 7.76341 74.4414 7.03655 76.0228 6.38308C77.6037 5.73664 79.2127 5.11937 80.8775 4.78508C82.5584 4.49102 84.2695 4.29395 85.9789 4.14317C89.401 3.84909 92.8405 3.737 96.2799 3.74654C92.8417 3.63897 89.3972 3.69477 85.9612 3.92298C84.2429 4.04514 82.5287 4.19796 80.8198 4.47894C79.1061 4.80267 77.4815 5.40688 75.8804 6.03927C74.2798 6.67866 72.7128 7.39095 71.1599 8.12987C69.608 8.87031 68.0714 9.64242 66.5485 10.4376C63.5038 12.0331 60.509 13.7126 57.548 15.4604L56.677 15.9746L57.693 15.9615C63.6721 15.8856 69.6502 15.8223 75.6281 15.7132L93.5617 15.3488C96.5502 15.2839 99.5391 15.199 102.527 15.098C104.021 15.0517 105.516 14.9939 107.01 14.9336C107.757 14.9065 108.505 14.8612 109.253 14.8255C109.625 14.8114 110.002 14.7767 110.378 14.7466L110.942 14.7003C111.13 14.6747 111.316 14.6465 111.502 14.6144C112.985 14.3509 114.437 13.9926 115.885 13.615C117.331 13.236 118.77 12.8339 120.205 12.4187C121.641 12.0035 123.072 11.5747 124.498 11.1313C125.212 10.9102 125.923 10.6815 126.632 10.4462L127.692 10.0853L128.219 9.89425C128.39 9.82339 128.575 9.77112 128.726 9.66352C128.573 9.76709 128.387 9.81432 128.214 9.88069L127.683 10.0581L126.614 10.3919L124.467 11.0273C123.033 11.4435 121.594 11.8441 120.153 12.2322C118.71 12.6193 117.265 12.9937 115.815 13.3451C114.364 13.6889 112.911 14.0413 111.447 14.2801C110.511 14.4058 109.559 14.452 108.604 14.4857L109.99 5.4883L108.1 14.5043ZM121.368 14.7385C125.365 13.4446 129.298 11.9924 133.208 10.4703L133.602 10.3175L133.3 10.032C132.402 9.185 131.468 8.3948 130.483 7.65334C129.989 7.28639 129.48 6.93552 128.95 6.61279C128.42 6.29207 127.865 5.995 127.256 5.79997L127.029 5.72506L126.802 5.66927L126.346 5.5597C126.041 5.50591 125.737 5.44106 125.432 5.39632C124.822 5.3013 124.212 5.22892 123.602 5.16106C122.38 5.03439 121.157 4.94794 119.934 4.87355C117.488 4.72927 115.042 4.63226 112.596 4.53925C110.15 4.44476 107.704 4.36937 105.257 4.29094L112.587 4.72023C115.03 4.86348 117.473 5.0108 119.91 5.2048C121.128 5.30635 122.345 5.41595 123.557 5.55367C124.161 5.62859 124.765 5.70749 125.363 5.80854C125.663 5.8568 125.956 5.92315 126.253 5.97943L126.688 6.09L126.905 6.1458L127.113 6.2177C127.667 6.40167 128.196 6.69072 128.704 7.0079C129.212 7.3266 129.704 7.67494 130.185 8.0404C131.026 8.69086 131.834 9.39462 132.607 10.1235C130.784 10.8071 128.95 11.4697 127.111 12.1131C125.134 12.7987 123.158 13.4874 121.164 14.1192C119.172 14.7516 117.17 15.3573 115.147 15.851C114.641 15.9671 114.136 16.1003 113.627 16.1862L112.866 16.331C112.612 16.3687 112.36 16.3928 112.106 16.425L111.727 16.4707L111.337 16.4868L110.558 16.5195C110.041 16.5457 109.513 16.5482 108.991 16.5632C104.803 16.6603 100.607 16.697 96.4129 16.7618L83.8302 16.9518L71.2467 17.1433L58.6639 17.4087C54.4698 17.5063 50.2749 17.6033 46.0819 17.7476C41.8894 17.9023 37.6948 18.0305 33.5083 18.3095C41.894 18.0351 50.2833 17.9984 58.6719 17.8908L71.2553 17.7782L83.8393 17.6395C92.2293 17.5465 100.616 17.4882 109.011 17.267C109.537 17.2494 110.058 17.2448 110.588 17.2162L111.38 17.1795L111.776 17.1614L112.178 17.1122C112.445 17.0775 112.715 17.0498 112.979 17.0091L113.761 16.8573C114.287 16.7658 114.796 16.6291 115.311 16.5089C117.359 15.9997 119.369 15.3825 121.368 14.7385ZM158.956 14.8949C156.469 14.6058 153.971 14.4138 151.468 14.2977C148.964 14.1956 146.456 14.1921 143.95 14.2716C141.444 14.357 138.943 14.5551 136.455 14.83C133.967 15.1125 131.486 15.4473 129.02 15.8716C124.088 16.6995 119.195 17.7496 114.374 19.0565C116.82 18.5503 119.268 18.0662 121.727 17.644C124.183 17.2057 126.646 16.8096 129.113 16.4486C131.58 16.0942 134.052 15.7741 136.531 15.5348C137.769 15.4026 139.01 15.3061 140.25 15.208L142.113 15.0959C142.734 15.0577 143.356 15.0462 143.977 15.019C148.95 14.831 153.934 15.0175 158.895 15.4735C163.858 15.9299 168.801 16.6392 173.739 17.3972C171.299 16.8654 168.844 16.4014 166.383 15.9626C163.919 15.5413 161.443 15.1749 158.956 14.8949ZM13.194 18.867C10.9515 19.3109 8.72087 19.816 6.51324 20.4102C5.41093 20.7113 4.31034 21.022 3.2231 21.3738C2.13564 21.7247 1.05234 22.0942 0 22.54C1.04345 22.0736 2.1202 21.6825 3.20148 21.31C4.2834 20.938 5.37723 20.5997 6.47772 20.2845C8.6796 19.6577 10.9067 19.1188 13.1468 18.6408C15.3891 18.1703 17.645 17.7692 19.9081 17.4087C22.1752 17.0709 24.4488 16.7749 26.7287 16.5477C31.2872 16.0726 35.8576 15.7368 40.4319 15.4775C44.9744 15.2246 49.5177 15.019 54.0693 14.9235C56.2585 13.4437 58.494 12.0572 60.7693 10.7232C63.0736 9.37701 65.4172 8.09469 67.8135 6.91036C70.2096 5.72658 72.6553 4.63024 75.177 3.71136C76.4353 3.24789 77.715 2.83268 79.0181 2.49036C80.3198 2.14704 81.645 1.86805 82.993 1.70971C88.3246 1.11856 93.6791 0.99993 99.0247 1.01853C104.371 1.0698 109.715 1.28395 115.043 1.75647C117.707 1.98217 120.365 2.28276 123.013 2.67485C124.338 2.86084 125.656 3.10212 126.973 3.34692L128.937 3.77016C129.589 3.91646 130.237 4.08333 130.887 4.23867C133.481 4.88713 136.056 5.59989 138.612 6.36649C141.171 7.12504 143.718 7.92127 146.257 8.73809C148.797 9.55146 151.33 10.3864 153.862 11.2173C155.129 11.6315 156.393 12.0553 157.662 12.4594C158.929 12.8641 160.202 13.2783 161.484 13.5874C162.121 13.7563 162.781 13.7608 163.444 13.7855L164.44 13.7764L165.438 13.7372C166.767 13.6689 168.097 13.5608 169.424 13.4311C172.077 13.1632 174.727 12.8495 177.369 12.4755C174.734 12.8972 172.093 13.2773 169.44 13.5779C168.113 13.7272 166.784 13.8554 165.45 13.9438L164.448 13.9976L163.443 14.0217C162.777 14.0077 162.088 14.0107 161.429 13.8473C160.113 13.5507 158.841 13.1561 157.564 12.769C156.286 12.381 155.015 11.9809 153.744 11.5782C151.202 10.7704 148.664 9.95808 146.118 9.1689C143.573 8.37567 141.023 7.60309 138.462 6.86915C135.904 6.12722 133.33 5.43957 130.744 4.81777C130.096 4.66896 129.45 4.50861 128.801 4.36937L126.849 3.96673C125.543 3.72746 124.235 3.4922 122.918 3.31122C120.286 2.9297 117.638 2.63815 114.984 2.421C109.678 1.96608 104.347 1.76903 99.0204 1.73334C93.6947 1.72429 88.3611 1.88363 83.0778 2.43909C81.7742 2.58788 80.4821 2.85531 79.2053 3.18858C77.928 3.51985 76.6671 3.9245 75.4236 4.37841C72.9328 5.2777 70.5046 6.35692 68.1227 7.52466C65.74 8.69387 63.4055 9.96211 61.1089 11.2942C58.8161 12.6293 56.5502 14.0257 54.3557 15.5031L54.2732 15.5584L54.1767 15.5604C49.6057 15.6454 45.0297 15.7886 40.4605 16.0093C35.89 16.2269 31.3234 16.5215 26.7704 16.9548C24.4929 17.1629 22.2239 17.4379 19.9578 17.7365C17.6953 18.0632 15.4383 18.4302 13.194 18.867Z" fill="#3AC22C"/>
<path d="M82.5972 23.0749C77.6641 23.0352 72.731 23.0372 67.7977 23.0176C62.8648 23.0382 57.9317 23.0347 52.9986 23.0754L45.5987 23.1448C43.1322 23.186 40.6661 23.2106 38.1993 23.2664C40.6661 23.3227 43.1322 23.3469 45.5987 23.3881L52.9986 23.4574C57.9317 23.4986 62.8648 23.4946 67.7977 23.5157C72.731 23.4961 77.6641 23.4981 82.5972 23.4584L89.9969 23.3891C92.4634 23.3473 94.93 23.3232 97.3965 23.2664C94.93 23.2101 92.4634 23.1855 89.9969 23.1443L82.5972 23.0749ZM73.836 13.3119C72.5213 13.61 71.1762 13.8081 69.8216 13.9242C70.502 13.9403 71.1829 13.9091 71.8634 13.8588C72.5441 13.8101 73.2233 13.7297 73.8976 13.6095C74.5727 13.4919 75.2426 13.331 75.8979 13.1074C76.5513 12.8816 77.197 12.5886 77.7591 12.1352L78.005 11.9376L77.7308 11.7702C76.8871 11.2555 76.0027 10.8423 75.0703 10.5121C74.6015 10.3567 74.1207 10.2245 73.6236 10.1506C73.1275 10.0767 72.6078 10.0531 72.0949 10.1788C71.6033 10.2984 71.1465 10.4638 70.6923 10.6407C70.2388 10.8182 69.7911 11.0042 69.3501 11.2042C68.9069 11.3997 68.4693 11.6074 68.0364 11.8225C67.6024 12.0361 67.1695 12.2518 66.7453 12.485L68.105 11.9794L69.4649 11.4832C70.3695 11.164 71.2848 10.8232 72.1927 10.6186C72.6261 10.5271 73.0908 10.5583 73.5479 10.6287C74.0061 10.7011 74.4601 10.8303 74.9061 10.9835C75.692 11.248 76.4576 11.6033 77.1905 11.9949C76.7608 12.3006 76.2678 12.5378 75.7608 12.7384C75.1403 12.9782 74.4908 13.1561 73.836 13.3119ZM150.982 22.53C149.873 22.4194 148.757 22.3902 147.643 22.4229C145.415 22.5129 143.197 22.8939 141.085 23.5936C138.971 24.2848 136.967 25.2978 135.186 26.595C137.075 25.4585 139.104 24.5819 141.202 23.9636C143.303 23.3514 145.476 23 147.661 22.9211C149.846 22.8406 152.041 23.0251 154.182 23.48C156.322 23.939 158.413 24.6547 160.392 25.6294C158.508 24.4849 156.431 23.6309 154.271 23.1005C153.192 22.8291 152.091 22.6461 150.982 22.53ZM21.7133 23.0292C20.1705 23.093 18.6339 23.3604 17.1755 23.8566C15.716 24.3446 14.3378 25.064 13.127 25.9838C14.4459 25.2249 15.8485 24.6417 17.2932 24.2265C18.74 23.8179 20.232 23.5801 21.7315 23.5273C23.2316 23.471 24.7377 23.5942 26.2119 23.8943C27.6845 24.1999 29.1279 24.6718 30.507 25.3177C29.2233 24.502 27.7938 23.8917 26.3009 23.5152C24.8088 23.1292 23.256 22.9794 21.7133 23.0292ZM141.749 9.65497C140.342 9.25889 138.935 8.8668 137.521 8.49583C136.108 8.11981 134.689 7.76643 133.263 7.43619C134.649 7.90517 136.041 8.35155 137.44 8.77429C138.837 9.20256 140.241 9.61025 141.645 10.0134C143.052 10.41 144.46 10.8016 145.874 11.1731C147.286 11.5491 148.705 11.9019 150.131 12.2322C148.745 11.7627 147.353 11.3163 145.955 10.8931C144.557 10.4653 143.154 10.0576 141.749 9.65497ZM108.1 14.5043C107.732 14.5163 107.364 14.5279 106.996 14.543C105.503 14.5862 104.009 14.6264 102.515 14.6556L93.5502 14.83L58.7255 15.4041C61.3781 13.8392 64.0661 12.3262 66.7826 10.8715C68.2919 10.0612 69.8139 9.27344 71.3514 8.51793C72.8895 7.76341 74.4414 7.03655 76.0228 6.38308C77.6037 5.73664 79.2127 5.11937 80.8775 4.78508C82.5584 4.49102 84.2695 4.29395 85.9789 4.14317C89.401 3.84909 92.8405 3.737 96.2799 3.74654C92.8417 3.63897 89.3972 3.69477 85.9612 3.92298C84.2429 4.04514 82.5287 4.19796 80.8198 4.47894C79.1061 4.80267 77.4815 5.40688 75.8804 6.03927C74.2798 6.67866 72.7128 7.39095 71.1599 8.12987C69.608 8.87031 68.0714 9.64242 66.5485 10.4376C63.5038 12.0331 60.509 13.7126 57.548 15.4604L56.677 15.9746L57.693 15.9615C63.6721 15.8856 69.6502 15.8223 75.6281 15.7132L93.5617 15.3488C96.5502 15.2839 99.5391 15.199 102.527 15.098C104.021 15.0517 105.516 14.9939 107.01 14.9336C107.757 14.9065 108.505 14.8612 109.253 14.8255C109.625 14.8114 110.002 14.7767 110.378 14.7466L110.942 14.7003C111.13 14.6747 111.316 14.6465 111.502 14.6144C112.985 14.3509 114.437 13.9926 115.885 13.615C117.331 13.236 118.77 12.8339 120.205 12.4187C121.641 12.0035 123.072 11.5747 124.498 11.1313C125.212 10.9102 125.923 10.6815 126.632 10.4462L127.692 10.0853L128.219 9.89425C128.39 9.82339 128.575 9.77112 128.726 9.66352C128.573 9.76709 128.387 9.81432 128.214 9.88069L127.683 10.0581L126.614 10.3919L124.467 11.0273C123.033 11.4435 121.594 11.8441 120.153 12.2322C118.71 12.6193 117.265 12.9937 115.815 13.3451C114.364 13.6889 112.911 14.0413 111.447 14.2801C110.511 14.4058 109.559 14.452 108.604 14.4857L109.99 5.4883L108.1 14.5043ZM121.368 14.7385C125.365 13.4446 129.298 11.9924 133.208 10.4703L133.602 10.3175L133.3 10.032C132.402 9.185 131.468 8.3948 130.483 7.65334C129.989 7.28639 129.48 6.93552 128.95 6.61279C128.42 6.29207 127.865 5.995 127.256 5.79997L127.029 5.72506L126.802 5.66927L126.346 5.5597C126.041 5.50591 125.737 5.44106 125.432 5.39632C124.822 5.3013 124.212 5.22892 123.602 5.16106C122.38 5.03439 121.157 4.94794 119.934 4.87355C117.488 4.72927 115.042 4.63226 112.596 4.53925C110.15 4.44476 107.704 4.36937 105.257 4.29094L112.587 4.72023C115.03 4.86348 117.473 5.0108 119.91 5.2048C121.128 5.30635 122.345 5.41595 123.557 5.55367C124.161 5.62859 124.765 5.70749 125.363 5.80854C125.663 5.8568 125.956 5.92315 126.253 5.97943L126.688 6.09L126.905 6.1458L127.113 6.2177C127.667 6.40167 128.196 6.69072 128.704 7.0079C129.212 7.3266 129.704 7.67494 130.185 8.0404C131.026 8.69086 131.834 9.39462 132.607 10.1235C130.784 10.8071 128.95 11.4697 127.111 12.1131C125.134 12.7987 123.158 13.4874 121.164 14.1192C119.172 14.7516 117.17 15.3573 115.147 15.851C114.641 15.9671 114.136 16.1003 113.627 16.1862L112.866 16.331C112.612 16.3687 112.36 16.3928 112.106 16.425L111.727 16.4707L111.337 16.4868L110.558 16.5195C110.041 16.5457 109.513 16.5482 108.991 16.5632C104.803 16.6603 100.607 16.697 96.4129 16.7618L83.8302 16.9518L71.2467 17.1433L58.6639 17.4087C54.4698 17.5063 50.2749 17.6033 46.0819 17.7476C41.8894 17.9023 37.6948 18.0305 33.5083 18.3095C41.894 18.0351 50.2833 17.9984 58.6719 17.8908L71.2553 17.7782L83.8393 17.6395C92.2293 17.5465 100.616 17.4882 109.011 17.267C109.537 17.2494 110.058 17.2448 110.588 17.2162L111.38 17.1795L111.776 17.1614L112.178 17.1122C112.445 17.0775 112.715 17.0498 112.979 17.0091L113.761 16.8573C114.287 16.7658 114.796 16.6291 115.311 16.5089C117.359 15.9997 119.369 15.3825 121.368 14.7385ZM158.956 14.8949C156.469 14.6058 153.971 14.4138 151.468 14.2977C148.964 14.1956 146.456 14.1921 143.95 14.2716C141.444 14.357 138.943 14.5551 136.455 14.83C133.967 15.1125 131.486 15.4473 129.02 15.8716C124.088 16.6995 119.195 17.7496 114.374 19.0565C116.82 18.5503 119.268 18.0662 121.727 17.644C124.183 17.2057 126.646 16.8096 129.113 16.4486C131.58 16.0942 134.052 15.7741 136.531 15.5348C137.769 15.4026 139.01 15.3061 140.25 15.208L142.113 15.0959C142.734 15.0577 143.356 15.0462 143.977 15.019C148.95 14.831 153.934 15.0175 158.895 15.4735C163.858 15.9299 168.801 16.6392 173.739 17.3972C171.299 16.8654 168.844 16.4014 166.383 15.9626C163.919 15.5413 161.443 15.1749 158.956 14.8949ZM13.194 18.867C10.9515 19.3109 8.72087 19.816 6.51324 20.4102C5.41093 20.7113 4.31034 21.022 3.2231 21.3738C2.13564 21.7247 1.05234 22.0942 0 22.54C1.04345 22.0736 2.1202 21.6825 3.20148 21.31C4.2834 20.938 5.37723 20.5997 6.47772 20.2845C8.6796 19.6577 10.9067 19.1188 13.1468 18.6408C15.3891 18.1703 17.645 17.7692 19.9081 17.4087C22.1752 17.0709 24.4488 16.7749 26.7287 16.5477C31.2872 16.0726 35.8576 15.7368 40.4319 15.4775C44.9744 15.2246 49.5177 15.019 54.0693 14.9235C56.2585 13.4437 58.494 12.0572 60.7693 10.7232C63.0736 9.37701 65.4172 8.09469 67.8135 6.91036C70.2096 5.72658 72.6553 4.63024 75.177 3.71136C76.4353 3.24789 77.715 2.83268 79.0181 2.49036C80.3198 2.14704 81.645 1.86805 82.993 1.70971C88.3246 1.11856 93.6791 0.99993 99.0247 1.01853C104.371 1.0698 109.715 1.28395 115.043 1.75647C117.707 1.98217 120.365 2.28276 123.013 2.67485C124.338 2.86084 125.656 3.10212 126.973 3.34692L128.937 3.77016C129.589 3.91646 130.237 4.08333 130.887 4.23867C133.481 4.88713 136.056 5.59989 138.612 6.36649C141.171 7.12504 143.718 7.92127 146.257 8.73809C148.797 9.55146 151.33 10.3864 153.862 11.2173C155.129 11.6315 156.393 12.0553 157.662 12.4594C158.929 12.8641 160.202 13.2783 161.484 13.5874C162.121 13.7563 162.781 13.7608 163.444 13.7855L164.44 13.7764L165.438 13.7372C166.767 13.6689 168.097 13.5608 169.424 13.4311C172.077 13.1632 174.727 12.8495 177.369 12.4755C174.734 12.8972 172.093 13.2773 169.44 13.5779C168.113 13.7272 166.784 13.8554 165.45 13.9438L164.448 13.9976L163.443 14.0217C162.777 14.0077 162.088 14.0107 161.429 13.8473C160.113 13.5507 158.841 13.1561 157.564 12.769C156.286 12.381 155.015 11.9809 153.744 11.5782C151.202 10.7704 148.664 9.95808 146.118 9.1689C143.573 8.37567 141.023 7.60309 138.462 6.86915C135.904 6.12722 133.33 5.43957 130.744 4.81777C130.096 4.66896 129.45 4.50861 128.801 4.36937L126.849 3.96673C125.543 3.72746 124.235 3.4922 122.918 3.31122C120.286 2.9297 117.638 2.63815 114.984 2.421C109.678 1.96608 104.347 1.76903 99.0204 1.73334C93.6947 1.72429 88.3611 1.88363 83.0778 2.43909C81.7742 2.58788 80.4821 2.85531 79.2053 3.18858C77.928 3.51985 76.6671 3.9245 75.4236 4.37841C72.9328 5.2777 70.5046 6.35692 68.1227 7.52466C65.74 8.69387 63.4055 9.96211 61.1089 11.2942C58.8161 12.6293 56.5502 14.0257 54.3557 15.5031L54.2732 15.5584L54.1767 15.5604C49.6057 15.6454 45.0297 15.7886 40.4605 16.0093C35.89 16.2269 31.3234 16.5215 26.7704 16.9548C24.4929 17.1629 22.2239 17.4379 19.9578 17.7365C17.6953 18.0632 15.4383 18.4302 13.194 18.867Z" stroke="#3AC22C" stroke-width="0.965147" mask="url(#path-2-outside-1_214_117)"/>
</g>
<defs>
<clipPath id="clip0_214_117">
<rect width="180" height="46" fill="white"/>
</clipPath>
</defs>
</svg>
