<svg width="24" height="24" viewBox="0 0 24 24" fill="none" xmlns="http://www.w3.org/2000/svg">
<g clip-path="url(#clip0_287_459)">
<path d="M5.58648 7.7207H0.768444C0.554612 7.7207 0.381348 7.89405 0.381348 8.1078V23.5861C0.381348 23.7999 0.554612 23.9732 0.768444 23.9732H5.58648C5.80032 23.9732 5.97358 23.7999 5.97358 23.5861V8.1078C5.97358 7.89405 5.80032 7.7207 5.58648 7.7207Z" fill="#1D2025"/>
<path d="M3.1793 0.0263672C1.42622 0.0263672 0 1.45104 0 3.20219C0 4.95411 1.42622 6.37932 3.1793 6.37932C4.93099 6.37932 6.35605 4.95403 6.35605 3.20219C6.35613 1.45104 4.93099 0.0263672 3.1793 0.0263672Z" fill="#1D2025"/>
<path d="M17.8417 7.33594C15.9066 7.33594 14.4762 8.16781 13.6085 9.11302V8.10773C13.6085 7.89398 13.4353 7.72063 13.2214 7.72063H8.60731C8.39348 7.72063 8.22021 7.89398 8.22021 8.10773V23.586C8.22021 23.7999 8.39348 23.9731 8.60731 23.9731H13.4148C13.6287 23.9731 13.8019 23.7999 13.8019 23.586V15.9279C13.8019 13.3472 14.5029 12.3419 16.3018 12.3419C18.261 12.3419 18.4167 13.9536 18.4167 16.0606V23.5861C18.4167 23.7999 18.5899 23.9732 18.8038 23.9732H23.613C23.8269 23.9732 24.0001 23.7999 24.0001 23.5861V15.096C24.0001 11.2587 23.2684 7.33594 17.8417 7.33594Z" fill="#1D2025"/>
</g>
<defs>
<clipPath id="clip0_287_459">
<rect width="24" height="24" fill="white"/>
</clipPath>
</defs>
</svg>
