<svg width="24" height="24" viewBox="0 0 24 24" fill="none" xmlns="http://www.w3.org/2000/svg">
<path d="M21.7907 5.27189C19.2716 5.27189 17.222 3.22233 17.222 0.703125C17.222 0.314812 16.9072 0 16.5189 0H12.7533C12.3649 0 12.0501 0.314812 12.0501 0.703125V16.1422C12.0501 17.6232 10.8452 18.8281 9.36415 18.8281C7.88313 18.8281 6.67825 17.6232 6.67825 16.1422C6.67825 14.6611 7.88313 13.4562 9.36415 13.4562C9.75246 13.4562 10.0673 13.1414 10.0673 12.7531V8.98744C10.0673 8.59912 9.75246 8.28431 9.36415 8.28431C5.03135 8.28431 1.50635 11.8093 1.50635 16.1422C1.50639 20.475 5.03135 24 9.36419 24C13.697 24 17.2221 20.475 17.2221 16.1422V9.3083C18.6215 10.0543 20.1786 10.4438 21.7908 10.4438C22.1791 10.4438 22.4939 10.129 22.4939 9.74067V5.97502C22.4938 5.5867 22.179 5.27189 21.7907 5.27189Z" fill="#1D2025"/>
</svg>
